<svg xmlns:rdf="http://www.w3.org/1999/02/22-rdf-syntax-ns#" xmlns="http://www.w3.org/2000/svg" version="1.1" xmlns:cc="http://creativecommons.org/ns#" xmlns:xlink="http://www.w3.org/1999/xlink" viewBox="0 0 471.24 98.737" xmlns:dc="http://purl.org/dc/elements/1.1/">
  <g>
  <g transform="translate(-1.2820508e-5,-953.62506)">
    <g transform="matrix(3.4606964,0,0,3.4606964,-637.16081,-543.58848)">
      <path style="fill:#76c342;" d="m301.71,457.99c1.599,0.444,2.541,0.961,2.524,1.486-0.015,0.383-0.539,0.723-1.451,1.011l0.059,0.006c2.209-0.305,3.318-0.661,3.319-1.052,0-0.397-1.115-0.831-3.351-1.294l-0.037-0.006-0.039-0.009c-0.285-0.053-0.637-0.101-1.024-0.142z"/>
      <path style="fill:#76c342;" d="m316.76,459.07c-0.026,0.769-0.876,1.472-2.383,2.092,3.93-0.663,5.904-1.411,5.9-2.229-0.006-0.96-2.728-2.017-8.174-3.145-0.034-0.007-0.078-0.012-0.114-0.018l-0.092,0.005c3.113,1.013,4.904,2.146,4.863,3.295z"/>
      <path style="fill:#76c342;" d="m310.32,459.24c-0.022,0.611-0.783,1.162-2.118,1.635h0.003c2.843-0.511,4.267-1.086,4.26-1.71-0.007-0.762-2.15-1.6-6.428-2.497,2.721,0.773,4.315,1.666,4.283,2.572z"/>
      <path style="fill:#5f6062;" d="m310.03,442.3c-0.486-0.328-1.144-0.199-1.472,0.288l-9.385,13.918c-0.225,0.334-1.118,2.546-1.661,3.913l0.64,0.068c1.065-1.018,2.573-2.483,2.782-2.792l9.385-13.92c0.328-0.487,0.199-1.146-0.289-1.475z"/>
      <path style="fill:#b6dc4f;" d="m311.35,446.67,4.996-7.673c1.115,0.167,2.175-0.164,2.775-0.979l-7.321-5.388c-0.6,0.818-0.601,1.924-0.11,2.941l-5.84,7.051c-2.159-0.515-4.515,0.265-5.913,2.166l11.104,8.171c1.399-1.899,1.444-4.38,0.309-6.289z"/>
      <path style="fill:#75c750;" d="m310.07,445.73,4.994-7.673c1.197-0.142,1.624-0.569,2.226-1.385l-5.486-4.037c-0.6,0.816-0.601,1.924-0.11,2.941l-5.84,7.051c-2.159-0.515-4.515,0.265-5.913,2.166l8.443,6.213c1.399-1.9,2.036-3.808,1.686-5.276z"/>
      <path style="fill:#5f6062;" d="m262.74,453.65,0-4.251,7.626,0c-0.584-1.557-1.655-2.574-3.213-3.05-0.497-0.151-1.016-0.227-1.557-0.227-1.925,0-3.321,0.822-4.186,2.466h-4.868c0.498-1.493,1.19-2.683,2.077-3.569,0.108-0.109,0.227-0.217,0.357-0.325,1.817-1.687,4.024-2.531,6.62-2.531,2.769,0,5.073,0.963,6.912,2.888,1.709,1.795,2.563,3.97,2.563,6.522,0,2.661-0.973,4.922-2.92,6.782-1.861,1.753-4.089,2.629-6.685,2.629-3.245,0-5.776-1.255-7.593-3.765-0.541-0.757-0.985-1.611-1.331-2.563h4.868c1.103,1.536,2.466,2.326,4.088,2.369,1.818,0,3.235-0.736,4.251-2.207,0.26-0.368,0.466-0.757,0.617-1.168h-7.626z"/>
      <path style="fill:#5f6062;" d="m246.58,460.31,0-13.48-3.932,0-0.247,0,0-0.247,0-3.835,0-0.247,0.247,0,12.9-0.002,0.25,0-0.004,0.251-0.064,3.836-0.004,0.243-0.242,0-4.194,0.001,0,13.48,0,0.247-0.247,0-4.216,0-0.247,0,0-0.247z"/>
      <path style="fill:#5f6062;" d="m235.1,460.31,0-10.358-4.186,10.45-0.062,0.155-0.167,0-3.361,0-0.166,0-0.062-0.155-4.218-10.458,0,10.366,0,0.247-0.247,0-4.217,0-0.247,0,0-0.247,0-17.566,0-0.247,0.247,0,6.532,0,0.175,0,0.057,0.166,3.825,10.965,3.764-10.964,0.057-0.167,0.176,0,6.564,0,0.247,0,0,0.247,0,17.566,0,0.247-0.247,0-4.217,0-0.247,0,0-0.247z"/>
      <path style="fill:#5f6062;" d="m188.29,460.31,0-13.479-3.9316,0-0.2469,0,0-0.247,0-3.836,0-0.247,0.2469,0,12.899-0.001,0.2501,0-0.004,0.251-0.0635,3.835-0.004,0.243-0.2419,0-4.1941,0.002,0,13.479,0,0.247-0.2468,0-4.2163,0-0.2469,0,0-0.247z"/>
      <path style="fill:#5f6062;" d="m281.86,460.52-2.812,0-1.795,0,0-17.961,4.607,0-0.029,0.189,0.034,0,0,5.595,4.877-5.796,5.844,0-6.194,7.52,7.084,10.453-5.863,0-4.467-7.067-1.281,1.34,0,5.727-0.005,0z"/>
      <path style="fill:#5f6062;" d="m196.43,460.56,7.5271-18.059,4.9071,0,7.5761,18.059-5.249,0-1.3642-3.817-6.7107,0-1.4369,3.817-5.2495,0zm8.0501-7.869,3.8611,0-1.9304-5.474-1.9307,5.474z"/>
    </g>
  </g>
  </g>
</svg>
